Coordinates
version=1
nRows=4
nColumns=107
inDegrees=yes

Units are S.I. units (second, meters, Newtons, ...)
If the header above contains a line with 'inDegrees', this indicates whether rotational values are in degrees (yes) or radians (no).

endheader
time	sternoclavicular_r2	sternoclavicular_r3	unrotscap_r3	unrotscap_r2	acromioclavicular_r2	acromioclavicular_r3	acromioclavicular_r1	unrothum_r1	unrothum_r3	unrothum_r2	elv_angle	shoulder_elv	shoulder1_r2	shoulder_rot	elbow_flexion	pro_sup	deviation	flexion	proximal_distal_r1	proximal_distal_r3	cmc_flexion	cmc_abduction	mp_flexion	ip_flexion	mcp2_flexion	mcp2_abduction	pm2_flexion	md2_flexion	mcp3_flexion	mcp3_abduction	pm3_flexion	md3_flexion	mcp4_flexion	mcp4_abduction	pm4_flexion	md4_flexion	mcp5_flexion	mcp5_abduction	pm5_flexion	md5_flexion	bicpt_tx	bicpt_ty	bicpt_tz	bicpt2_tx	bicpt2_ty	bicpt2_tz	ptpt_tx	ptpt_ty	ptpt_tz	FCUpt_tx	FCUpt_ty	FCUpt_tz	EDCpt_tx	EDCpt_ty	EDCpt_tz	APLpt_tx	APLpt_ty	APLpt_tz	FPLpt_tx	FPLpt_ty	FPLpt_tz	FPLpt2_tx	FPLpt2_ty	FPLpt2_tz	PEC1pt2_tx	PEC1pt2_ty	PEC1pt2_tz	PEC1pt3_tx	PEC1pt3_ty	PEC1pt3_tz	PEC2pt2_tx	PEC2pt2_ty	PEC2pt2_tz	PEC2pt3_tx	PEC2pt3_ty	PEC2pt3_tz	PEC3pt2_tx	PEC3pt2_ty	PEC3pt2_tz	PEC3pt3_tx	PEC3pt3_ty	PEC3pt3_tz	DELT2pt2a_tx	DELT2pt2a_ty	DELT2pt2a_tz	DELT2pt2_tx	DELT2pt2_ty	DELT2pt2_tz	LAT1pt2_tx	LAT1pt2_ty	LAT1pt2_tz	LAT1pt3_tx	LAT1pt3_ty	LAT1pt3_tz	LAT2pt2_tx	LAT2pt2_ty	LAT2pt2_tz	LAT2pt3_tx	LAT2pt3_ty	LAT2pt3_tz	LAT3pt2_tx	LAT3pt2_ty	LAT3pt2_tz	LAT3pt3_tx	LAT3pt3_ty	LAT3pt3_tz
      0.00000000	     -0.32419369	      0.13731314	     -0.13731314	      0.32419369	     -0.06564263	      0.53050062	      0.23845638	     -0.23845638	     -0.53050062	      0.06564263	     98.46473153	     76.75573687	     -1.71853376	    -20.16678781	     28.55277643	     22.42027821	      0.01273176	     -1.01382224	      0.01714627	     -0.50691112	      3.81761707	      7.20424290	    -39.32532405	    -59.08305016	     13.77460114	     -6.35605468	     23.36996072	    -21.11202780	     78.16087380	      4.02901849	     82.60383614	     35.25071623	     70.81683275	    -10.42711968	     82.62088788	     20.94675548	     18.59391143	     -3.07692770	    -15.25167897	      4.90957312	      0.00084444	     -0.03087258	     -0.00482713	      0.01618806	     -0.01795650	     -0.00913004	      0.00589339	     -0.06597119	     -0.00185607	      0.00605803	     -0.18381689	     -0.00014526	     -0.00269043	      0.00071281	      0.00018888	      0.00017652	      0.00007061	      0.00035304	      0.00022595	      0.00067784	      0.00038129	      0.00004230	     -0.00008734	     -0.00010481	      0.00251588	      0.00882692	      0.00614046	     -0.00822993	      0.01987122	     -0.01884781	      0.00251588	      0.00882692	      0.00614046	      0.00055435	      0.01842139	     -0.00967976	      0.00397016	      0.00490854	      0.01602171	      0.00000000	      0.00787986	      0.00000000	     -0.00720652	     -0.03330349	     -0.00649786	      0.01387231	     -0.00043706	     -0.00335630	     -0.00089548	      0.01501002	     -0.00614046	      0.00247324	      0.02166219	     -0.01790969	     -0.00601254	      0.01300584	     -0.00550083	     -0.01253678	      0.02746152	     -0.03074496	     -0.02353845	      0.01454096	     -0.00737709	     -0.01560701	      0.03172573	     -0.03842054
      0.03333333	     -0.32205495	      0.13640727	     -0.13640727	      0.32205495	     -0.06520958	      0.52700085	      0.23688326	     -0.23688326	     -0.52700085	      0.06520958	     98.94263671	     76.24937104	     -1.72687478	    -22.65741351	     28.64026647	     24.61128945	      0.00732815	     -1.00922616	      0.00990153	     -0.50461308	      3.26858564	      7.56530632	    -39.28289494	    -57.62226029	     13.00297852	     -5.90331067	     24.56202062	    -21.74029868	     78.37694079	      4.00044607	     83.03520079	     35.80454488	     70.12035449	    -10.42857675	     83.78007738	     21.73437442	     18.47275356	     -2.80673299	    -15.41072303	      4.90058309	      0.00084733	     -0.03088261	     -0.00482874	      0.01627477	     -0.01798027	     -0.00894678	      0.00573150	     -0.06607587	     -0.00203257	      0.00626747	     -0.18378156	     -0.00018801	     -0.00295335	      0.00079079	      0.00019272	      0.00017960	      0.00007184	      0.00035921	      0.00022989	      0.00068968	      0.00038795	      0.00004234	     -0.00007578	     -0.00009094	      0.00249929	      0.00876869	      0.00609995	     -0.00817563	      0.01974013	     -0.01872347	      0.00249929	      0.00876869	      0.00609995	      0.00055069	      0.01829986	     -0.00961590	      0.00395106	      0.00487615	      0.01597526	      0.00000000	      0.00777550	      0.00000000	     -0.00715897	     -0.03308378	     -0.00641123	      0.01526254	     -0.00051492	     -0.00427528	     -0.00088958	      0.01491100	     -0.00609995	      0.00245693	      0.02151929	     -0.01779153	     -0.00597287	      0.01292004	     -0.00546454	     -0.01245407	      0.02728035	     -0.03054213	     -0.02338316	      0.01444503	     -0.00732842	     -0.01550405	      0.03151643	     -0.03816708
      0.06666667	     -0.32166880	      0.13624372	     -0.13624372	      0.32166880	     -0.06513139	      0.52636898	      0.23659923	     -0.23659923	     -0.52636898	      0.06513139	     99.03658174	     76.15794855	     -1.72851443	    -23.09176715	     28.66812612	     24.94580781	      0.00846854	     -1.00949302	      0.01143482	     -0.50474651	      2.82924706	      7.83866042	    -39.04207022	    -57.09502150	     12.41176015	     -5.62142020	     25.07617541	    -21.73416262	     78.56942378	      3.98671054	     83.27367363	     36.93494517	     69.55585765	    -10.41169675	     84.72977999	     22.23525868	     18.40265100	     -2.64184726	    -15.49448246	      4.89149880	      0.00084825	     -0.03088581	     -0.00482926	      0.01628705	     -0.01798784	     -0.00891821	      0.00570679	     -0.06609185	     -0.00205952	      0.00629957	     -0.18377605	     -0.00019422	     -0.00299349	      0.00080283	      0.00019308	      0.00017943	      0.00007177	      0.00035885	      0.00022967	      0.00068900	      0.00038756	      0.00004147	     -0.00006629	     -0.00007954	      0.00249629	      0.00875817	      0.00609264	     -0.00816583	      0.01971646	     -0.01870102	      0.00249629	      0.00875817	      0.00609264	      0.00055003	      0.01827792	     -0.00960437	      0.00394760	      0.00487031	      0.01596681	      0.00000000	      0.00775674	      0.00000000	     -0.00715039	     -0.03304412	     -0.00639566	      0.01549651	     -0.00052874	     -0.00444510	     -0.00088851	      0.01489312	     -0.00609264	      0.00245398	      0.02149348	     -0.01777020	     -0.00596571	      0.01290455	     -0.00545799	     -0.01243914	      0.02724764	     -0.03050552	     -0.02335512	      0.01442771	     -0.00731963	     -0.01548546	      0.03147865	     -0.03812132
      0.10000000	     -0.32177855	      0.13629020	     -0.13629020	      0.32177855	     -0.06515361	      0.52654856	      0.23667995	     -0.23667995	     -0.52654856	      0.06515361	     99.03198696	     76.18393082	     -1.72843424	    -23.09863615	     28.67346995	     24.94571522	      0.00850315	     -1.00953171	      0.01148080	     -0.50476585	      2.82834329	      7.83902465	    -39.04211569	    -57.09470418	     12.40772497	     -5.62117843	     25.07570898	    -21.73437451	     78.57027815	      3.98690294	     83.27408819	     36.93504934	     69.55483079	    -10.41175268	     84.73026865	     22.23521571	     18.40147863	     -2.64159480	    -15.49490530	      4.89148571	      0.00084843	     -0.03088642	     -0.00482936	      0.01628704	     -0.01798929	     -0.00891822	      0.00570679	     -0.06609185	     -0.00205951	      0.00629956	     -0.18377605	     -0.00019422	     -0.00299348	      0.00080283	      0.00019308	      0.00017940	      0.00007176	      0.00035880	      0.00022963	      0.00068889	      0.00038750	      0.00004146	     -0.00006626	     -0.00007952	      0.00249714	      0.00876116	      0.00609472	     -0.00816862	      0.01972319	     -0.01870740	      0.00249714	      0.00876116	      0.00609472	      0.00055022	      0.01828416	     -0.00960765	      0.00394858	      0.00487197	      0.01596921	      0.00000000	      0.00776207	      0.00000000	     -0.00715283	     -0.03305539	     -0.00640008	      0.01550012	     -0.00052896	     -0.00444789	     -0.00088881	      0.01489820	     -0.00609472	      0.00245482	      0.02150082	     -0.01777627	     -0.00596775	      0.01290895	     -0.00545985	     -0.01244339	      0.02725694	     -0.03051592	     -0.02336309	      0.01443263	     -0.00732213	     -0.01549075	      0.03148938	     -0.03813432
